<?xml version="1.0" encoding="UTF-8" standalone="no"?><svg xmlns="http://www.w3.org/2000/svg" xmlns:xlink="http://www.w3.org/1999/xlink" contentScriptType="application/ecmascript" contentStyleType="text/css" height="412px" preserveAspectRatio="none" style="width:844px;height:412px;background:#000000;" version="1.1" viewBox="0 0 844 412" width="844px" zoomAndPan="magnify"><defs><filter height="300%" id="fsxzwcl4pc1p7" width="300%" x="-1" y="-1"><feGaussianBlur result="blurOut" stdDeviation="2.0"/><feColorMatrix in="blurOut" result="blurOut2" type="matrix" values="0 0 0 0 0 0 0 0 0 0 0 0 0 0 0 0 0 0 .4 0"/><feOffset dx="4.0" dy="4.0" in="blurOut2" result="blurOut3"/><feBlend in="SourceGraphic" in2="blurOut3" mode="normal"/></filter></defs><g><line style="stroke: #C7C7C7; stroke-width: 1.0; stroke-dasharray: 5.0,5.0;" x1="30" x2="30" y1="89.0679" y2="317.01"/><line style="stroke: #C7C7C7; stroke-width: 1.0; stroke-dasharray: 5.0,5.0;" x1="257" x2="257" y1="89.0679" y2="317.01"/><line style="stroke: #C7C7C7; stroke-width: 1.0; stroke-dasharray: 5.0,5.0;" x1="411" x2="411" y1="89.0679" y2="317.01"/><line style="stroke: #C7C7C7; stroke-width: 1.0; stroke-dasharray: 5.0,5.0;" x1="761.5" x2="761.5" y1="89.0679" y2="317.01"/><text fill="#FFFFFF" font-family="sans-serif" font-size="14" lengthAdjust="spacingAndGlyphs" textLength="39" x="8" y="84.9659">Client</text><ellipse cx="30.5" cy="13" fill="#070707" filter="url(#fsxzwcl4pc1p7)" rx="8" ry="8" style="stroke: #C7C7C7; stroke-width: 2.0;"/><path d="M30.5,21 L30.5,48 M17.5,29 L43.5,29 M30.5,48 L17.5,63 M30.5,48 L43.5,63 " fill="none" filter="url(#fsxzwcl4pc1p7)" style="stroke: #C7C7C7; stroke-width: 2.0;"/><text fill="#FFFFFF" font-family="sans-serif" font-size="14" lengthAdjust="spacingAndGlyphs" textLength="39" x="8" y="330.976">Client</text><ellipse cx="30.5" cy="345.0779" fill="#070707" filter="url(#fsxzwcl4pc1p7)" rx="8" ry="8" style="stroke: #C7C7C7; stroke-width: 2.0;"/><path d="M30.5,353.0779 L30.5,380.0779 M17.5,361.0779 L43.5,361.0779 M30.5,380.0779 L17.5,395.0779 M30.5,380.0779 L43.5,395.0779 " fill="none" filter="url(#fsxzwcl4pc1p7)" style="stroke: #C7C7C7; stroke-width: 2.0;"/><rect fill="#070707" filter="url(#fsxzwcl4pc1p7)" height="33.0679" style="stroke: #C7C7C7; stroke-width: 1.5;" width="149" x="181" y="51"/><text fill="#FFFFFF" font-family="sans-serif" font-size="14" lengthAdjust="spacingAndGlyphs" textLength="135" x="188" y="72.9659">Web Server / Router</text><rect fill="#070707" filter="url(#fsxzwcl4pc1p7)" height="33.0679" style="stroke: #C7C7C7; stroke-width: 1.5;" width="149" x="181" y="316.01"/><text fill="#FFFFFF" font-family="sans-serif" font-size="14" lengthAdjust="spacingAndGlyphs" textLength="135" x="188" y="337.976">Web Server / Router</text><rect fill="#070707" filter="url(#fsxzwcl4pc1p7)" height="52.1358" style="stroke: #C7C7C7; stroke-width: 1.5;" width="130" x="344" y="31.9321"/><text fill="#FFFFFF" font-family="sans-serif" font-size="14" lengthAdjust="spacingAndGlyphs" textLength="116" x="351" y="53.898">Users API Service</text><text fill="#FFFFFF" font-family="sans-serif" font-size="14" lengthAdjust="spacingAndGlyphs" textLength="63" x="377.5" y="72.9659">(external)</text><rect fill="#070707" filter="url(#fsxzwcl4pc1p7)" height="52.1358" style="stroke: #C7C7C7; stroke-width: 1.5;" width="130" x="344" y="316.01"/><text fill="#FFFFFF" font-family="sans-serif" font-size="14" lengthAdjust="spacingAndGlyphs" textLength="116" x="351" y="337.976">Users API Service</text><text fill="#FFFFFF" font-family="sans-serif" font-size="14" lengthAdjust="spacingAndGlyphs" textLength="63" x="377.5" y="357.0439">(external)</text><text fill="#FFFFFF" font-family="sans-serif" font-size="14" lengthAdjust="spacingAndGlyphs" textLength="93" x="712.5" y="65.898">SQL Database</text><text fill="#FFFFFF" font-family="sans-serif" font-size="14" lengthAdjust="spacingAndGlyphs" textLength="147" x="685.5" y="84.9659">(for Users API Service)</text><path d="M744,14.9321 C744,4.9321 762,4.9321 762,4.9321 C762,4.9321 780,4.9321 780,14.9321 L780,40.9321 C780,50.9321 762,50.9321 762,50.9321 C762,50.9321 744,50.9321 744,40.9321 L744,14.9321 " fill="#070707" filter="url(#fsxzwcl4pc1p7)" style="stroke: #FFFFFF; stroke-width: 1.5;"/><path d="M744,14.9321 C744,24.9321 762,24.9321 762,24.9321 C762,24.9321 780,24.9321 780,14.9321 " fill="none" style="stroke: #FFFFFF; stroke-width: 1.5;"/><text fill="#FFFFFF" font-family="sans-serif" font-size="14" lengthAdjust="spacingAndGlyphs" textLength="93" x="712.5" y="330.976">SQL Database</text><text fill="#FFFFFF" font-family="sans-serif" font-size="14" lengthAdjust="spacingAndGlyphs" textLength="147" x="685.5" y="350.0439">(for Users API Service)</text><path d="M744,364.1459 C744,354.1459 762,354.1459 762,354.1459 C762,354.1459 780,354.1459 780,364.1459 L780,390.1459 C780,400.1459 762,400.1459 762,400.1459 C762,400.1459 744,400.1459 744,390.1459 L744,364.1459 " fill="#070707" filter="url(#fsxzwcl4pc1p7)" style="stroke: #FFFFFF; stroke-width: 1.5;"/><path d="M744,364.1459 C744,374.1459 762,374.1459 762,374.1459 C762,374.1459 780,374.1459 780,364.1459 " fill="none" style="stroke: #FFFFFF; stroke-width: 1.5;"/><polygon fill="#C7C7C7" points="245.5,118.7739,255.5,122.7739,245.5,126.7739,249.5,122.7739" style="stroke: #C7C7C7; stroke-width: 1.0;"/><line style="stroke: #C7C7C7; stroke-width: 1.0;" x1="30.5" x2="251.5" y1="122.7739" y2="122.7739"/><text fill="#FFFFFF" font-family="sans-serif" font-size="13" lengthAdjust="spacingAndGlyphs" textLength="203" x="37.5" y="116.9649">GET /api/users (proxied or routed)</text><polygon fill="#C7C7C7" points="399,150.4799,409,154.4799,399,158.4799,403,154.4799" style="stroke: #C7C7C7; stroke-width: 1.0;"/><line style="stroke: #C7C7C7; stroke-width: 1.0;" x1="257.5" x2="405" y1="154.4799" y2="154.4799"/><text fill="#FFFFFF" font-family="sans-serif" font-size="13" lengthAdjust="spacingAndGlyphs" textLength="86" x="264.5" y="148.6709">GET /api/users</text><polygon fill="#C7C7C7" points="750,199.892,760,203.892,750,207.892,754,203.892" style="stroke: #C7C7C7; stroke-width: 1.0;"/><line style="stroke: #C7C7C7; stroke-width: 1.0;" x1="411" x2="756" y1="203.892" y2="203.892"/><text fill="#FFFFFF" font-family="sans-serif" font-size="13" lengthAdjust="spacingAndGlyphs" textLength="81" x="418" y="180.377">EXECUTE SQL</text><text fill="#FFFFFF" font-family="sans-serif" font-size="13" lengthAdjust="spacingAndGlyphs" textLength="327" x="418" y="198.083">SELECT id,name,email FROM users WHERE active = true</text><polygon fill="#C7C7C7" points="422,231.598,412,235.598,422,239.598,418,235.598" style="stroke: #C7C7C7; stroke-width: 1.0;"/><line style="stroke: #C7C7C7; stroke-width: 1.0; stroke-dasharray: 2.0,2.0;" x1="416" x2="761" y1="235.598" y2="235.598"/><text fill="#FFFFFF" font-family="sans-serif" font-size="13" lengthAdjust="spacingAndGlyphs" textLength="37" x="428" y="229.789">rows[]</text><polygon fill="#C7C7C7" points="268.5,263.304,258.5,267.304,268.5,271.304,264.5,267.304" style="stroke: #C7C7C7; stroke-width: 1.0;"/><line style="stroke: #C7C7C7; stroke-width: 1.0; stroke-dasharray: 2.0,2.0;" x1="262.5" x2="410" y1="267.304" y2="267.304"/><text fill="#FFFFFF" font-family="sans-serif" font-size="13" lengthAdjust="spacingAndGlyphs" textLength="105" x="274.5" y="261.495">JSON { users: [...] }</text><polygon fill="#C7C7C7" points="41.5,295.01,31.5,299.01,41.5,303.01,37.5,299.01" style="stroke: #C7C7C7; stroke-width: 1.0;"/><line style="stroke: #C7C7C7; stroke-width: 1.0; stroke-dasharray: 2.0,2.0;" x1="35.5" x2="256.5" y1="299.01" y2="299.01"/><text fill="#FFFFFF" font-family="sans-serif" font-size="13" lengthAdjust="spacingAndGlyphs" textLength="90" x="47.5" y="293.201">HTTP 200 JSON</text><!--MD5=[e8198e57eacae5796e462b93128dfc41]
@startuml
skinparam monochrome reverse

actor Client
participant "Web Server / Router" as WebServer
participant "Users API Service\n(external)" as UsersAPI
database "SQL Database\n(for Users API Service)" as Database

Client -> WebServer : GET /api/users (proxied or routed)
WebServer -> UsersAPI : GET /api/users
UsersAPI -> Database : EXECUTE SQL\nSELECT id,name,email FROM users WHERE active = true
Database - -> UsersAPI : rows[]
UsersAPI - -> WebServer : JSON { users: [...] }
WebServer - -> Client : HTTP 200 JSON

@enduml

PlantUML version 1.2020.02(Sun Mar 01 11:22:07 CET 2020)
(GPL source distribution)
Java Runtime: OpenJDK Runtime Environment
JVM: OpenJDK 64-Bit Server VM
Java Version: 21.0.9+10-Ubuntu-125.10
Operating System: Linux
Default Encoding: UTF-8
Language: en
Country: US
--></g></svg>