<?xml version="1.0" encoding="UTF-8" standalone="no"?><svg xmlns="http://www.w3.org/2000/svg" xmlns:xlink="http://www.w3.org/1999/xlink" contentScriptType="application/ecmascript" contentStyleType="text/css" height="552px" preserveAspectRatio="none" style="width:1029px;height:552px;" version="1.1" viewBox="0 0 1029 552" width="1029px" zoomAndPan="magnify"><defs><filter height="300%" id="f14ya2t7zxo4ul" width="300%" x="-1" y="-1"><feGaussianBlur result="blurOut" stdDeviation="2.0"/><feColorMatrix in="blurOut" result="blurOut2" type="matrix" values="0 0 0 0 0 0 0 0 0 0 0 0 0 0 0 0 0 0 .4 0"/><feOffset dx="4.0" dy="4.0" in="blurOut2" result="blurOut3"/><feBlend in="SourceGraphic" in2="blurOut3" mode="normal"/></filter></defs><g><line style="stroke: #A80036; stroke-width: 1.0; stroke-dasharray: 5.0,5.0;" x1="30" x2="30" y1="89.0679" y2="457.8341"/><line style="stroke: #A80036; stroke-width: 1.0; stroke-dasharray: 5.0,5.0;" x1="139" x2="139" y1="89.0679" y2="457.8341"/><line style="stroke: #A80036; stroke-width: 1.0; stroke-dasharray: 5.0,5.0;" x1="280" x2="280" y1="89.0679" y2="457.8341"/><line style="stroke: #A80036; stroke-width: 1.0; stroke-dasharray: 5.0,5.0;" x1="485" x2="485" y1="89.0679" y2="457.8341"/><line style="stroke: #A80036; stroke-width: 1.0; stroke-dasharray: 5.0,5.0;" x1="634" x2="634" y1="89.0679" y2="457.8341"/><line style="stroke: #A80036; stroke-width: 1.0; stroke-dasharray: 5.0,5.0;" x1="787" x2="787" y1="89.0679" y2="457.8341"/><line style="stroke: #A80036; stroke-width: 1.0; stroke-dasharray: 5.0,5.0;" x1="948" x2="948" y1="89.0679" y2="457.8341"/><text fill="#000000" font-family="sans-serif" font-size="14" lengthAdjust="spacingAndGlyphs" textLength="39" x="8" y="84.9659">Client</text><ellipse cx="30.5" cy="13" fill="#FEFECE" filter="url(#f14ya2t7zxo4ul)" rx="8" ry="8" style="stroke: #A80036; stroke-width: 2.0;"/><path d="M30.5,21 L30.5,48 M17.5,29 L43.5,29 M30.5,48 L17.5,63 M30.5,48 L43.5,63 " fill="none" filter="url(#f14ya2t7zxo4ul)" style="stroke: #A80036; stroke-width: 2.0;"/><text fill="#000000" font-family="sans-serif" font-size="14" lengthAdjust="spacingAndGlyphs" textLength="39" x="8" y="471.8">Client</text><ellipse cx="30.5" cy="485.902" fill="#FEFECE" filter="url(#f14ya2t7zxo4ul)" rx="8" ry="8" style="stroke: #A80036; stroke-width: 2.0;"/><path d="M30.5,493.902 L30.5,520.902 M17.5,501.902 L43.5,501.902 M30.5,520.902 L17.5,535.902 M30.5,520.902 L43.5,535.902 " fill="none" filter="url(#f14ya2t7zxo4ul)" style="stroke: #A80036; stroke-width: 2.0;"/><rect fill="#FEFECE" filter="url(#f14ya2t7zxo4ul)" height="33.0679" style="stroke: #A80036; stroke-width: 1.5;" width="149" x="63" y="51"/><text fill="#000000" font-family="sans-serif" font-size="14" lengthAdjust="spacingAndGlyphs" textLength="135" x="70" y="72.9659">Web Server / Router</text><rect fill="#FEFECE" filter="url(#f14ya2t7zxo4ul)" height="33.0679" style="stroke: #A80036; stroke-width: 1.5;" width="149" x="63" y="456.8341"/><text fill="#000000" font-family="sans-serif" font-size="14" lengthAdjust="spacingAndGlyphs" textLength="135" x="70" y="478.8">Web Server / Router</text><rect fill="#FEFECE" filter="url(#f14ya2t7zxo4ul)" height="52.1358" style="stroke: #A80036; stroke-width: 1.5;" width="105" x="226" y="31.9321"/><text fill="#000000" font-family="sans-serif" font-size="14" lengthAdjust="spacingAndGlyphs" textLength="91" x="233" y="53.898">Page Handler</text><text fill="#000000" font-family="sans-serif" font-size="14" lengthAdjust="spacingAndGlyphs" textLength="50" x="253.5" y="72.9659">(/users)</text><rect fill="#FEFECE" filter="url(#f14ya2t7zxo4ul)" height="52.1358" style="stroke: #A80036; stroke-width: 1.5;" width="105" x="226" y="456.8341"/><text fill="#000000" font-family="sans-serif" font-size="14" lengthAdjust="spacingAndGlyphs" textLength="91" x="233" y="478.8">Page Handler</text><text fill="#000000" font-family="sans-serif" font-size="14" lengthAdjust="spacingAndGlyphs" textLength="50" x="253.5" y="497.868">(/users)</text><rect fill="#FEFECE" filter="url(#f14ya2t7zxo4ul)" height="52.1358" style="stroke: #A80036; stroke-width: 1.5;" width="139" x="414" y="31.9321"/><text fill="#000000" font-family="sans-serif" font-size="14" lengthAdjust="spacingAndGlyphs" textLength="125" x="421" y="53.898">Service Discovery /</text><text fill="#000000" font-family="sans-serif" font-size="14" lengthAdjust="spacingAndGlyphs" textLength="83" x="442" y="72.9659">API Gateway</text><rect fill="#FEFECE" filter="url(#f14ya2t7zxo4ul)" height="52.1358" style="stroke: #A80036; stroke-width: 1.5;" width="139" x="414" y="456.8341"/><text fill="#000000" font-family="sans-serif" font-size="14" lengthAdjust="spacingAndGlyphs" textLength="125" x="421" y="478.8">Service Discovery /</text><text fill="#000000" font-family="sans-serif" font-size="14" lengthAdjust="spacingAndGlyphs" textLength="83" x="442" y="497.868">API Gateway</text><rect fill="#FEFECE" filter="url(#f14ya2t7zxo4ul)" height="52.1358" style="stroke: #A80036; stroke-width: 1.5;" width="130" x="567" y="31.9321"/><text fill="#000000" font-family="sans-serif" font-size="14" lengthAdjust="spacingAndGlyphs" textLength="116" x="574" y="53.898">Users API Service</text><text fill="#000000" font-family="sans-serif" font-size="14" lengthAdjust="spacingAndGlyphs" textLength="63" x="600.5" y="72.9659">(external)</text><rect fill="#FEFECE" filter="url(#f14ya2t7zxo4ul)" height="52.1358" style="stroke: #A80036; stroke-width: 1.5;" width="130" x="567" y="456.8341"/><text fill="#000000" font-family="sans-serif" font-size="14" lengthAdjust="spacingAndGlyphs" textLength="116" x="574" y="478.8">Users API Service</text><text fill="#000000" font-family="sans-serif" font-size="14" lengthAdjust="spacingAndGlyphs" textLength="63" x="600.5" y="497.868">(external)</text><text fill="#000000" font-family="sans-serif" font-size="14" lengthAdjust="spacingAndGlyphs" textLength="93" x="738" y="65.898">SQL Database</text><text fill="#000000" font-family="sans-serif" font-size="14" lengthAdjust="spacingAndGlyphs" textLength="147" x="711" y="84.9659">(for Users API Service)</text><path d="M769.5,14.9321 C769.5,4.9321 787.5,4.9321 787.5,4.9321 C787.5,4.9321 805.5,4.9321 805.5,14.9321 L805.5,40.9321 C805.5,50.9321 787.5,50.9321 787.5,50.9321 C787.5,50.9321 769.5,50.9321 769.5,40.9321 L769.5,14.9321 " fill="#FEFECE" filter="url(#f14ya2t7zxo4ul)" style="stroke: #000000; stroke-width: 1.5;"/><path d="M769.5,14.9321 C769.5,24.9321 787.5,24.9321 787.5,24.9321 C787.5,24.9321 805.5,24.9321 805.5,14.9321 " fill="none" style="stroke: #000000; stroke-width: 1.5;"/><text fill="#000000" font-family="sans-serif" font-size="14" lengthAdjust="spacingAndGlyphs" textLength="93" x="738" y="471.8">SQL Database</text><text fill="#000000" font-family="sans-serif" font-size="14" lengthAdjust="spacingAndGlyphs" textLength="147" x="711" y="490.868">(for Users API Service)</text><path d="M769.5,504.9699 C769.5,494.9699 787.5,494.9699 787.5,494.9699 C787.5,494.9699 805.5,494.9699 805.5,504.9699 L805.5,530.9699 C805.5,540.9699 787.5,540.9699 787.5,540.9699 C787.5,540.9699 769.5,540.9699 769.5,530.9699 L769.5,504.9699 " fill="#FEFECE" filter="url(#f14ya2t7zxo4ul)" style="stroke: #000000; stroke-width: 1.5;"/><path d="M769.5,504.9699 C769.5,514.9699 787.5,514.9699 787.5,514.9699 C787.5,514.9699 805.5,514.9699 805.5,504.9699 " fill="none" style="stroke: #000000; stroke-width: 1.5;"/><rect fill="#FEFECE" filter="url(#f14ya2t7zxo4ul)" height="33.0679" style="stroke: #A80036; stroke-width: 1.5;" width="144" x="874" y="51"/><text fill="#000000" font-family="sans-serif" font-size="14" lengthAdjust="spacingAndGlyphs" textLength="130" x="881" y="72.9659">Template Renderer</text><rect fill="#FEFECE" filter="url(#f14ya2t7zxo4ul)" height="33.0679" style="stroke: #A80036; stroke-width: 1.5;" width="144" x="874" y="456.8341"/><text fill="#000000" font-family="sans-serif" font-size="14" lengthAdjust="spacingAndGlyphs" textLength="130" x="881" y="478.8">Template Renderer</text><polygon fill="#A80036" points="127.5,118.7739,137.5,122.7739,127.5,126.7739,131.5,122.7739" style="stroke: #A80036; stroke-width: 1.0;"/><line style="stroke: #A80036; stroke-width: 1.0;" x1="30.5" x2="133.5" y1="122.7739" y2="122.7739"/><text fill="#000000" font-family="sans-serif" font-size="13" lengthAdjust="spacingAndGlyphs" textLength="63" x="37.5" y="116.9649">GET /users</text><polygon fill="#A80036" points="268.5,150.4799,278.5,154.4799,268.5,158.4799,272.5,154.4799" style="stroke: #A80036; stroke-width: 1.0;"/><line style="stroke: #A80036; stroke-width: 1.0;" x1="139.5" x2="274.5" y1="154.4799" y2="154.4799"/><text fill="#000000" font-family="sans-serif" font-size="13" lengthAdjust="spacingAndGlyphs" textLength="73" x="146.5" y="148.6709">route /users</text><polygon fill="#A80036" points="473.5,182.186,483.5,186.186,473.5,190.186,477.5,186.186" style="stroke: #A80036; stroke-width: 1.0;"/><line style="stroke: #A80036; stroke-width: 1.0;" x1="280.5" x2="479.5" y1="186.186" y2="186.186"/><text fill="#000000" font-family="sans-serif" font-size="13" lengthAdjust="spacingAndGlyphs" textLength="181" x="287.5" y="180.377">resolve endpoint for Users API</text><polygon fill="#A80036" points="291.5,213.892,281.5,217.892,291.5,221.892,287.5,217.892" style="stroke: #A80036; stroke-width: 1.0;"/><line style="stroke: #A80036; stroke-width: 1.0; stroke-dasharray: 2.0,2.0;" x1="285.5" x2="484.5" y1="217.892" y2="217.892"/><text fill="#000000" font-family="sans-serif" font-size="13" lengthAdjust="spacingAndGlyphs" textLength="106" x="297.5" y="212.083">API endpoint URL</text><polygon fill="#A80036" points="622,245.598,632,249.598,622,253.598,626,249.598" style="stroke: #A80036; stroke-width: 1.0;"/><line style="stroke: #A80036; stroke-width: 1.0;" x1="280.5" x2="628" y1="249.598" y2="249.598"/><text fill="#000000" font-family="sans-serif" font-size="13" lengthAdjust="spacingAndGlyphs" textLength="195" x="287.5" y="243.789">GET /api/users (external request)</text><polygon fill="#A80036" points="775.5,277.304,785.5,281.304,775.5,285.304,779.5,281.304" style="stroke: #A80036; stroke-width: 1.0;"/><line style="stroke: #A80036; stroke-width: 1.0;" x1="634" x2="781.5" y1="281.304" y2="281.304"/><text fill="#000000" font-family="sans-serif" font-size="13" lengthAdjust="spacingAndGlyphs" textLength="81" x="641" y="275.495">EXECUTE SQL</text><polygon fill="#A80036" points="645,309.01,635,313.01,645,317.01,641,313.01" style="stroke: #A80036; stroke-width: 1.0;"/><line style="stroke: #A80036; stroke-width: 1.0; stroke-dasharray: 2.0,2.0;" x1="639" x2="786.5" y1="313.01" y2="313.01"/><text fill="#000000" font-family="sans-serif" font-size="13" lengthAdjust="spacingAndGlyphs" textLength="37" x="651" y="307.201">rows[]</text><polygon fill="#A80036" points="291.5,340.716,281.5,344.716,291.5,348.716,287.5,344.716" style="stroke: #A80036; stroke-width: 1.0;"/><line style="stroke: #A80036; stroke-width: 1.0; stroke-dasharray: 2.0,2.0;" x1="285.5" x2="633" y1="344.716" y2="344.716"/><text fill="#000000" font-family="sans-serif" font-size="13" lengthAdjust="spacingAndGlyphs" textLength="105" x="297.5" y="338.907">JSON { users: [...] }</text><polygon fill="#A80036" points="936,372.4221,946,376.4221,936,380.4221,940,376.4221" style="stroke: #A80036; stroke-width: 1.0;"/><line style="stroke: #A80036; stroke-width: 1.0;" x1="280.5" x2="942" y1="376.4221" y2="376.4221"/><text fill="#000000" font-family="sans-serif" font-size="13" lengthAdjust="spacingAndGlyphs" textLength="177" x="287.5" y="370.6131">render(users.html, json.users)</text><polygon fill="#A80036" points="291.5,404.1281,281.5,408.1281,291.5,412.1281,287.5,408.1281" style="stroke: #A80036; stroke-width: 1.0;"/><line style="stroke: #A80036; stroke-width: 1.0; stroke-dasharray: 2.0,2.0;" x1="285.5" x2="947" y1="408.1281" y2="408.1281"/><text fill="#000000" font-family="sans-serif" font-size="13" lengthAdjust="spacingAndGlyphs" textLength="36" x="297.5" y="402.3191">HTML</text><polygon fill="#A80036" points="41.5,435.8341,31.5,439.8341,41.5,443.8341,37.5,439.8341" style="stroke: #A80036; stroke-width: 1.0;"/><line style="stroke: #A80036; stroke-width: 1.0; stroke-dasharray: 2.0,2.0;" x1="35.5" x2="279.5" y1="439.8341" y2="439.8341"/><text fill="#000000" font-family="sans-serif" font-size="13" lengthAdjust="spacingAndGlyphs" textLength="95" x="47.5" y="434.0251">HTTP 200 HTML</text><!--MD5=[81ef212790048882c04da1c64fab15a2]
@startuml
skin plantuml2

actor Client
participant "Web Server / Router" as WebServer
participant "Page Handler\n(/users)" as PageHandler
participant "Service Discovery /\nAPI Gateway" as Discovery
participant "Users API Service\n(external)" as UsersAPI
database "SQL Database\n(for Users API Service)" as Database
participant "Template Renderer" as Renderer

Client -> WebServer : GET /users
WebServer -> PageHandler : route /users

PageHandler -> Discovery : resolve endpoint for Users API
Discovery - -> PageHandler : API endpoint URL

PageHandler -> UsersAPI : GET /api/users (external request)
UsersAPI -> Database : EXECUTE SQL
Database - -> UsersAPI : rows[]
UsersAPI - -> PageHandler : JSON { users: [...] }

PageHandler -> Renderer : render(users.html, json.users)
Renderer - -> PageHandler : HTML
PageHandler - -> Client : HTTP 200 HTML

@enduml

PlantUML version 1.2020.02(Sun Mar 01 11:22:07 CET 2020)
(GPL source distribution)
Java Runtime: OpenJDK Runtime Environment
JVM: OpenJDK 64-Bit Server VM
Java Version: 21.0.9+10-Ubuntu-125.10
Operating System: Linux
Default Encoding: UTF-8
Language: en
Country: US
--></g></svg>