<?xml version="1.0" encoding="UTF-8" standalone="no"?><svg xmlns="http://www.w3.org/2000/svg" xmlns:xlink="http://www.w3.org/1999/xlink" contentScriptType="application/ecmascript" contentStyleType="text/css" height="484px" preserveAspectRatio="none" style="width:819px;height:484px;" version="1.1" viewBox="0 0 819 484" width="819px" zoomAndPan="magnify"><defs><filter height="300%" id="fqe4dk59593h2" width="300%" x="-1" y="-1"><feGaussianBlur result="blurOut" stdDeviation="2.0"/><feColorMatrix in="blurOut" result="blurOut2" type="matrix" values="0 0 0 0 0 0 0 0 0 0 0 0 0 0 0 0 0 0 .4 0"/><feOffset dx="4.0" dy="4.0" in="blurOut2" result="blurOut3"/><feBlend in="SourceGraphic" in2="blurOut3" mode="normal"/></filter></defs><g><line style="stroke: #A80036; stroke-width: 1.0; stroke-dasharray: 5.0,5.0;" x1="30" x2="30" y1="89.0679" y2="394.4221"/><line style="stroke: #A80036; stroke-width: 1.0; stroke-dasharray: 5.0,5.0;" x1="139" x2="139" y1="89.0679" y2="394.4221"/><line style="stroke: #A80036; stroke-width: 1.0; stroke-dasharray: 5.0,5.0;" x1="280" x2="280" y1="89.0679" y2="394.4221"/><line style="stroke: #A80036; stroke-width: 1.0; stroke-dasharray: 5.0,5.0;" x1="438" x2="438" y1="89.0679" y2="394.4221"/><line style="stroke: #A80036; stroke-width: 1.0; stroke-dasharray: 5.0,5.0;" x1="585" x2="585" y1="89.0679" y2="394.4221"/><line style="stroke: #A80036; stroke-width: 1.0; stroke-dasharray: 5.0,5.0;" x1="738" x2="738" y1="89.0679" y2="394.4221"/><text fill="#000000" font-family="sans-serif" font-size="14" lengthAdjust="spacingAndGlyphs" textLength="39" x="8" y="84.9659">Client</text><ellipse cx="30.5" cy="13" fill="#FEFECE" filter="url(#fqe4dk59593h2)" rx="8" ry="8" style="stroke: #A80036; stroke-width: 2.0;"/><path d="M30.5,21 L30.5,48 M17.5,29 L43.5,29 M30.5,48 L17.5,63 M30.5,48 L43.5,63 " fill="none" filter="url(#fqe4dk59593h2)" style="stroke: #A80036; stroke-width: 2.0;"/><text fill="#000000" font-family="sans-serif" font-size="14" lengthAdjust="spacingAndGlyphs" textLength="39" x="8" y="408.388">Client</text><ellipse cx="30.5" cy="422.49" fill="#FEFECE" filter="url(#fqe4dk59593h2)" rx="8" ry="8" style="stroke: #A80036; stroke-width: 2.0;"/><path d="M30.5,430.49 L30.5,457.49 M17.5,438.49 L43.5,438.49 M30.5,457.49 L17.5,472.49 M30.5,457.49 L43.5,472.49 " fill="none" filter="url(#fqe4dk59593h2)" style="stroke: #A80036; stroke-width: 2.0;"/><rect fill="#FEFECE" filter="url(#fqe4dk59593h2)" height="33.0679" style="stroke: #A80036; stroke-width: 1.5;" width="149" x="63" y="51"/><text fill="#000000" font-family="sans-serif" font-size="14" lengthAdjust="spacingAndGlyphs" textLength="135" x="70" y="72.9659">Web Server / Router</text><rect fill="#FEFECE" filter="url(#fqe4dk59593h2)" height="33.0679" style="stroke: #A80036; stroke-width: 1.5;" width="149" x="63" y="393.4221"/><text fill="#000000" font-family="sans-serif" font-size="14" lengthAdjust="spacingAndGlyphs" textLength="135" x="70" y="415.388">Web Server / Router</text><rect fill="#FEFECE" filter="url(#fqe4dk59593h2)" height="52.1358" style="stroke: #A80036; stroke-width: 1.5;" width="105" x="226" y="31.9321"/><text fill="#000000" font-family="sans-serif" font-size="14" lengthAdjust="spacingAndGlyphs" textLength="91" x="233" y="53.898">Page Handler</text><text fill="#000000" font-family="sans-serif" font-size="14" lengthAdjust="spacingAndGlyphs" textLength="50" x="253.5" y="72.9659">(/users)</text><rect fill="#FEFECE" filter="url(#fqe4dk59593h2)" height="52.1358" style="stroke: #A80036; stroke-width: 1.5;" width="105" x="226" y="393.4221"/><text fill="#000000" font-family="sans-serif" font-size="14" lengthAdjust="spacingAndGlyphs" textLength="91" x="233" y="415.388">Page Handler</text><text fill="#000000" font-family="sans-serif" font-size="14" lengthAdjust="spacingAndGlyphs" textLength="50" x="253.5" y="434.4559">(/users)</text><rect fill="#FEFECE" filter="url(#fqe4dk59593h2)" height="52.1358" style="stroke: #A80036; stroke-width: 1.5;" width="133" x="370" y="31.9321"/><text fill="#000000" font-family="sans-serif" font-size="14" lengthAdjust="spacingAndGlyphs" textLength="119" x="377" y="53.898">Local Query Layer</text><text fill="#000000" font-family="sans-serif" font-size="14" lengthAdjust="spacingAndGlyphs" textLength="94" x="389.5" y="72.9659">(e.g. ETL, DAL)</text><rect fill="#FEFECE" filter="url(#fqe4dk59593h2)" height="52.1358" style="stroke: #A80036; stroke-width: 1.5;" width="133" x="370" y="393.4221"/><text fill="#000000" font-family="sans-serif" font-size="14" lengthAdjust="spacingAndGlyphs" textLength="119" x="377" y="415.388">Local Query Layer</text><text fill="#000000" font-family="sans-serif" font-size="14" lengthAdjust="spacingAndGlyphs" textLength="94" x="389.5" y="434.4559">(e.g. ETL, DAL)</text><text fill="#000000" font-family="sans-serif" font-size="14" lengthAdjust="spacingAndGlyphs" textLength="131" x="517" y="84.9659">Local SQL Database</text><path d="M567.5,34 C567.5,24 585.5,24 585.5,24 C585.5,24 603.5,24 603.5,34 L603.5,60 C603.5,70 585.5,70 585.5,70 C585.5,70 567.5,70 567.5,60 L567.5,34 " fill="#FEFECE" filter="url(#fqe4dk59593h2)" style="stroke: #000000; stroke-width: 1.5;"/><path d="M567.5,34 C567.5,44 585.5,44 585.5,44 C585.5,44 603.5,44 603.5,34 " fill="none" style="stroke: #000000; stroke-width: 1.5;"/><text fill="#000000" font-family="sans-serif" font-size="14" lengthAdjust="spacingAndGlyphs" textLength="131" x="517" y="408.388">Local SQL Database</text><path d="M567.5,422.49 C567.5,412.49 585.5,412.49 585.5,412.49 C585.5,412.49 603.5,412.49 603.5,422.49 L603.5,448.49 C603.5,458.49 585.5,458.49 585.5,458.49 C585.5,458.49 567.5,458.49 567.5,448.49 L567.5,422.49 " fill="#FEFECE" filter="url(#fqe4dk59593h2)" style="stroke: #000000; stroke-width: 1.5;"/><path d="M567.5,422.49 C567.5,432.49 585.5,432.49 585.5,432.49 C585.5,432.49 603.5,432.49 603.5,422.49 " fill="none" style="stroke: #000000; stroke-width: 1.5;"/><rect fill="#FEFECE" filter="url(#fqe4dk59593h2)" height="33.0679" style="stroke: #A80036; stroke-width: 1.5;" width="144" x="664" y="51"/><text fill="#000000" font-family="sans-serif" font-size="14" lengthAdjust="spacingAndGlyphs" textLength="130" x="671" y="72.9659">Template Renderer</text><rect fill="#FEFECE" filter="url(#fqe4dk59593h2)" height="33.0679" style="stroke: #A80036; stroke-width: 1.5;" width="144" x="664" y="393.4221"/><text fill="#000000" font-family="sans-serif" font-size="14" lengthAdjust="spacingAndGlyphs" textLength="130" x="671" y="415.388">Template Renderer</text><polygon fill="#A80036" points="127.5,118.7739,137.5,122.7739,127.5,126.7739,131.5,122.7739" style="stroke: #A80036; stroke-width: 1.0;"/><line style="stroke: #A80036; stroke-width: 1.0;" x1="30.5" x2="133.5" y1="122.7739" y2="122.7739"/><text fill="#000000" font-family="sans-serif" font-size="13" lengthAdjust="spacingAndGlyphs" textLength="63" x="37.5" y="116.9649">GET /users</text><polygon fill="#A80036" points="268.5,150.4799,278.5,154.4799,268.5,158.4799,272.5,154.4799" style="stroke: #A80036; stroke-width: 1.0;"/><line style="stroke: #A80036; stroke-width: 1.0;" x1="139.5" x2="274.5" y1="154.4799" y2="154.4799"/><text fill="#000000" font-family="sans-serif" font-size="13" lengthAdjust="spacingAndGlyphs" textLength="73" x="146.5" y="148.6709">route /users</text><polygon fill="#A80036" points="426.5,182.186,436.5,186.186,426.5,190.186,430.5,186.186" style="stroke: #A80036; stroke-width: 1.0;"/><line style="stroke: #A80036; stroke-width: 1.0;" x1="280.5" x2="432.5" y1="186.186" y2="186.186"/><text fill="#000000" font-family="sans-serif" font-size="13" lengthAdjust="spacingAndGlyphs" textLength="134" x="287.5" y="180.377">fetchUsers("users.list")</text><polygon fill="#A80036" points="573.5,213.892,583.5,217.892,573.5,221.892,577.5,217.892" style="stroke: #A80036; stroke-width: 1.0;"/><line style="stroke: #A80036; stroke-width: 1.0;" x1="438.5" x2="579.5" y1="217.892" y2="217.892"/><text fill="#000000" font-family="sans-serif" font-size="13" lengthAdjust="spacingAndGlyphs" textLength="81" x="445.5" y="212.083">EXECUTE SQL</text><polygon fill="#A80036" points="449.5,245.598,439.5,249.598,449.5,253.598,445.5,249.598" style="stroke: #A80036; stroke-width: 1.0;"/><line style="stroke: #A80036; stroke-width: 1.0; stroke-dasharray: 2.0,2.0;" x1="443.5" x2="584.5" y1="249.598" y2="249.598"/><text fill="#000000" font-family="sans-serif" font-size="13" lengthAdjust="spacingAndGlyphs" textLength="37" x="455.5" y="243.789">rows[]</text><polygon fill="#A80036" points="291.5,277.304,281.5,281.304,291.5,285.304,287.5,281.304" style="stroke: #A80036; stroke-width: 1.0;"/><line style="stroke: #A80036; stroke-width: 1.0; stroke-dasharray: 2.0,2.0;" x1="285.5" x2="437.5" y1="281.304" y2="281.304"/><text fill="#000000" font-family="sans-serif" font-size="13" lengthAdjust="spacingAndGlyphs" textLength="37" x="297.5" y="275.495">rows[]</text><polygon fill="#A80036" points="726,309.01,736,313.01,726,317.01,730,313.01" style="stroke: #A80036; stroke-width: 1.0;"/><line style="stroke: #A80036; stroke-width: 1.0;" x1="280.5" x2="732" y1="313.01" y2="313.01"/><text fill="#000000" font-family="sans-serif" font-size="13" lengthAdjust="spacingAndGlyphs" textLength="146" x="287.5" y="307.201">render(users.html, rows)</text><polygon fill="#A80036" points="291.5,340.716,281.5,344.716,291.5,348.716,287.5,344.716" style="stroke: #A80036; stroke-width: 1.0;"/><line style="stroke: #A80036; stroke-width: 1.0; stroke-dasharray: 2.0,2.0;" x1="285.5" x2="737" y1="344.716" y2="344.716"/><text fill="#000000" font-family="sans-serif" font-size="13" lengthAdjust="spacingAndGlyphs" textLength="36" x="297.5" y="338.907">HTML</text><polygon fill="#A80036" points="41.5,372.4221,31.5,376.4221,41.5,380.4221,37.5,376.4221" style="stroke: #A80036; stroke-width: 1.0;"/><line style="stroke: #A80036; stroke-width: 1.0; stroke-dasharray: 2.0,2.0;" x1="35.5" x2="279.5" y1="376.4221" y2="376.4221"/><text fill="#000000" font-family="sans-serif" font-size="13" lengthAdjust="spacingAndGlyphs" textLength="95" x="47.5" y="370.6131">HTTP 200 HTML</text><!--MD5=[fba00774e065f48c13651ee8cbab468c]
@startuml
skin plantuml2

actor Client
participant "Web Server / Router" as WebServer
participant "Page Handler\n(/users)" as PageHandler
participant "Local Query Layer\n(e.g. ETL, DAL)" as LocalQuery
database "Local SQL Database" as Database
participant "Template Renderer" as Renderer

Client -> WebServer : GET /users
WebServer -> PageHandler : route /users

PageHandler -> LocalQuery : fetchUsers("users.list")
LocalQuery -> Database : EXECUTE SQL
Database - -> LocalQuery : rows[]
LocalQuery - -> PageHandler : rows[]

PageHandler -> Renderer : render(users.html, rows)
Renderer - -> PageHandler : HTML
PageHandler - -> Client : HTTP 200 HTML

@enduml

PlantUML version 1.2020.02(Sun Mar 01 11:22:07 CET 2020)
(GPL source distribution)
Java Runtime: OpenJDK Runtime Environment
JVM: OpenJDK 64-Bit Server VM
Java Version: 21.0.9+10-Ubuntu-125.10
Operating System: Linux
Default Encoding: UTF-8
Language: en
Country: US
--></g></svg>